<svg width="122" height="124" viewBox="0 0 122 124" fill="none" xmlns="http://www.w3.org/2000/svg">
<path d="M12.2045 11.2L24.409 34.4H0L12.2045 11.2Z" fill="white"/>
<path d="M31.4877 3.19995L41.9835 34.4H20.9918L31.4877 3.19995Z" fill="white"/>
<path d="M53.6999 11.2L66.8808 34.4H40.519L53.6999 11.2Z" fill="white"/>
<path fill-rule="evenodd" clip-rule="evenodd" d="M53.6999 11.2L40.519 34.4H66.8808L53.6999 11.2ZM53.6999 13.0197L42.0697 33.4902H65.3301L53.6999 13.0197Z" fill="white"/>
<path d="M77.6208 11.2L88.3608 34.4H66.8809L77.6208 11.2Z" fill="white"/>
<path d="M103.983 0L121.557 34.4H86.408L103.983 0Z" fill="white"/>
<path d="M0 34.4H121.557V45.6H0V34.4Z" fill="white"/>
<path d="M0 123.649V97.9513H3.38055V108.554H10.2432V97.9513H13.6159V123.649H10.2432V113.033H3.38055V123.649H0Z" fill="white"/>
<path d="M32.8552 110.8C32.8552 113.602 32.5247 115.986 31.8637 117.952C31.2079 119.918 30.3126 121.419 29.178 122.457C28.0485 123.486 26.7786 124 25.368 124C23.9471 124 22.6719 123.481 21.5425 122.444C20.413 121.407 19.5204 119.905 18.8646 117.94C18.2088 115.974 17.8809 113.594 17.8809 110.8C17.8809 107.998 18.2088 105.614 18.8646 103.648C19.5204 101.682 20.413 100.185 21.5425 99.1559C22.6719 98.1186 23.9471 97.6 25.368 97.6C26.7786 97.6 28.0485 98.1186 29.178 99.1559C30.3126 100.185 31.2079 101.682 31.8637 103.648C32.5247 105.614 32.8552 107.998 32.8552 110.8ZM29.4278 110.8C29.4278 108.985 29.2587 107.454 28.9203 106.208C28.5872 104.961 28.1162 104.016 27.5072 103.372C26.8983 102.728 26.1852 102.406 25.368 102.406C24.5509 102.406 23.8378 102.728 23.2288 103.372C22.6199 104.016 22.1462 104.961 21.8079 106.208C21.4748 107.454 21.3083 108.985 21.3083 110.8C21.3083 112.615 21.4748 114.146 21.8079 115.392C22.1462 116.639 22.6199 117.584 23.2288 118.228C23.8378 118.872 24.5509 119.194 25.368 119.194C26.1852 119.194 26.8983 118.872 27.5072 118.228C28.1162 117.584 28.5872 116.639 28.9203 115.392C29.2587 114.146 29.4278 112.615 29.4278 110.8Z" fill="white"/>
<path d="M37.1182 123.649V97.9513H40.4988V119.169H47.3536V123.649H37.1182Z" fill="white"/>
<path d="M54.7317 97.9513V123.649H51.3511V97.9513H54.7317Z" fill="white"/>
<path d="M64.9399 123.649H59.2718V97.9513H64.9868C66.5951 97.9513 67.9796 98.4658 69.1403 99.4947C70.3009 100.515 71.1936 101.983 71.8181 103.899C72.4479 105.814 72.7628 108.106 72.7628 110.775C72.7628 113.452 72.4479 115.752 71.8181 117.676C71.1936 119.6 70.2957 121.076 69.1246 122.105C67.9587 123.134 66.5638 123.649 64.9399 123.649ZM62.6524 118.994H64.7994C65.7987 118.994 66.6393 118.709 67.3212 118.14C68.0082 117.563 68.5235 116.672 68.867 115.468C69.2157 114.255 69.3901 112.691 69.3901 110.775C69.3901 108.876 69.2157 107.324 68.867 106.12C68.5235 104.915 68.0108 104.029 67.329 103.46C66.6471 102.891 65.8065 102.606 64.8072 102.606H62.6524V118.994Z" fill="white"/>
<path d="M78.8801 123.649H75.2575L80.7772 97.9513H85.1337L90.6456 123.649H87.0231L83.0179 103.824H82.893L78.8801 123.649ZM78.6537 113.548H87.2104V117.789H78.6537V113.548Z" fill="white"/>
<path d="M94.1572 123.649V120.424L102.136 102.431H94.1416V97.9513H106.383V101.176L98.3965 119.169H106.399V123.649H94.1572Z" fill="white"/>
<path d="M110.752 123.649V97.9513H121.526V102.431H114.132V108.554H120.972V113.033H114.132V119.169H121.557V123.649H110.752Z" fill="white"/>
<path d="M0 83.5635V51.6365H7.66713C9.07589 51.6365 10.2509 51.9847 11.1921 52.681C12.1334 53.3773 12.8409 54.3439 13.3146 55.5806C13.7884 56.807 14.0252 58.2204 14.0252 59.8209C14.0252 61.0681 13.8756 62.1645 13.5764 63.1103C13.2772 64.0456 12.8658 64.8147 12.3422 65.4175C11.8248 66.0099 11.2327 66.4308 10.5657 66.6802V66.992C11.295 67.044 11.9776 67.387 12.6134 68.0209C13.2554 68.6549 13.7759 69.5435 14.1748 70.6867C14.5738 71.8195 14.7733 73.1706 14.7733 74.7399C14.7733 76.434 14.5208 77.9462 14.0159 79.2764C13.5172 80.5963 12.7786 81.6408 11.7999 82.4099C10.8213 83.179 9.61508 83.5635 8.18139 83.5635H0ZM4.04862 78.0449H7.34923C8.47748 78.0449 9.30029 77.6863 9.81767 76.9692C10.335 76.2417 10.5937 75.2752 10.5937 74.0696C10.5937 73.1862 10.4659 72.4067 10.2104 71.7312C9.9548 71.0557 9.59015 70.5256 9.11641 70.1411C8.6489 69.7565 8.09101 69.5643 7.44273 69.5643H4.04862V78.0449ZM4.04862 64.9966H7.05002C7.6048 64.9966 8.09724 64.8355 8.52735 64.5133C8.96369 64.1808 9.30653 63.7131 9.55586 63.1103C9.81143 62.5075 9.93922 61.7852 9.93922 60.9434C9.93922 59.7897 9.693 58.8596 9.20056 58.1529C8.71435 57.4461 8.02244 57.0928 7.12482 57.0928H4.04862V64.9966Z" fill="white"/>
<path d="M20.8306 83.5635V51.6365H33.7338V57.2019H24.8792V64.8095H33.0699V70.3749H24.8792V77.9981H33.7712V83.5635H20.8306Z" fill="white"/>
<path d="M40.3755 83.5635V51.6365H47.9304C49.3766 51.6365 50.6108 52.0678 51.6331 52.9304C52.6616 53.7826 53.4439 54.9934 53.98 56.5628C54.5223 58.1217 54.7934 59.956 54.7934 62.0658C54.7934 64.1859 54.5192 66.0099 53.9706 67.5377C53.4221 69.055 52.6273 70.219 51.5863 71.0297C50.5516 71.8403 49.2987 72.2456 47.8276 72.2456H42.7691V66.8205H47.1731C47.946 66.8205 48.588 66.6439 49.0992 66.2905C49.6103 65.9371 49.9906 65.4071 50.2399 64.7004C50.4955 63.9937 50.6233 63.1155 50.6233 62.0658C50.6233 61.0057 50.4955 60.1119 50.2399 59.3844C49.9906 58.6569 49.6072 58.1061 49.0898 57.732C48.5787 57.3474 47.9335 57.1551 47.1544 57.1551H44.4241V83.5635H40.3755ZM50.7168 69.0342L55.476 83.5635H51.0066L46.3502 69.0342H50.7168Z" fill="white"/>
<path d="M73.775 61.9567C73.6441 61.198 73.4602 60.5276 73.2233 59.9456C72.9865 59.3532 72.6966 58.8544 72.3538 58.4491C72.0172 58.0333 71.6307 57.7164 71.1944 57.4981C70.7642 57.2799 70.2874 57.1707 69.7638 57.1707C68.7851 57.1707 67.9249 57.5761 67.1831 58.3867C66.4476 59.1974 65.8741 60.3769 65.4627 61.9255C65.0513 63.4636 64.8456 65.3448 64.8456 67.5688C64.8456 69.7929 65.0482 71.6844 65.4534 73.2434C65.8585 74.8023 66.432 75.9923 67.1738 76.8133C67.9156 77.624 68.7914 78.0293 69.8012 78.0293C70.7175 78.0293 71.4998 77.7591 72.1481 77.2186C72.8026 76.6678 73.3013 75.8936 73.6441 74.8958C73.9932 73.8981 74.1677 72.7185 74.1677 71.357L74.9905 71.5597H70.0536V66.4776H78.0667V70.4996C78.0667 73.3057 77.7114 75.7169 77.0008 77.7331C76.2902 79.7389 75.3115 81.2875 74.0649 82.3787C72.8182 83.4596 71.3907 84 69.7825 84C67.9872 84 66.4102 83.3401 65.0513 82.0202C63.6924 80.6899 62.6327 78.8036 61.8722 76.3612C61.118 73.9085 60.7409 70.9985 60.7409 67.6312C60.7409 65.0434 60.9653 62.7361 61.4141 60.7095C61.8691 58.6725 62.5049 56.9473 63.3215 55.5339C64.1381 54.1204 65.0887 53.0448 66.1733 52.3069C67.2579 51.569 68.4329 51.2 69.6983 51.2C70.7829 51.2 71.7928 51.465 72.7278 51.9951C73.6628 52.5147 74.4918 53.2526 75.2149 54.2088C75.9442 55.1649 76.5395 56.3029 77.0008 57.6228C77.4621 58.9323 77.7582 60.3769 77.8891 61.9567H73.775Z" fill="white"/>
<path d="M84.5308 83.5635V51.6365H97.434V57.2019H88.5794V64.8095H96.7701V70.3749H88.5794V77.9981H97.4714V83.5635H84.5308Z" fill="white"/>
<path d="M120.093 51.6365V83.5635H116.596L108.265 63.4688H108.124V83.5635H104.076V51.6365H107.629L115.894 71.7156H116.063V51.6365H120.093Z" fill="white"/>
<path fill-rule="evenodd" clip-rule="evenodd" d="M121.557 92H0L0 89.6H121.557V92Z" fill="white"/>
</svg>
